#!OML:ASF H:\ManfredETheater\Project 1\Capture day 1\Session 1\subject.ASF
:FULLY-SPECIFIED
:DEGREES
91
root -1.45063 19.4593 19.803 -165.694 -2.61654 -181.336
lowerback 21.3265 -1.16511 0.453944
upperback 3.77915 -1.94484 2.71768
thorax -7.7027 -1.22778 3.27172
lowerneck -14.8335 -0.736663 -1.92718
upperneck 3.35427 -0.254785 -2.36911
head 3.75871 -0.19797 -0.463557
rclavicle -3.18055e-015 -7.31528e-014
rhumerus -54.3992 -2.54097 -83.6912
rradius 80.3015
rwrist -9.66764
rhand -29.8491 2.90663
rfingers 7.12502
rthumb -3.17175 -27.0495
lclavicle -3.18055e-015 -7.31528e-014
lhumerus -33.4302 -13.102 99.9217
lradius 85.8484
lwrist 10.2708
lhand -30.0162 -19.0828
lfingers 7.12502
lthumb -3.33307 10.8709
rfemur -63.4387 -7.10207 26.1334
rtibia 73.8724
rfoot -18.3488 -9.40547
rtoes -25.4166
lfemur -24.5192 0.186117 -20.1058
ltibia 80.0596
lfoot -1.80157 -6.29136
ltoes -4.17527
92
root -1.41094 19.5265 19.3975 -166.076 -2.73002 -180.224
lowerback 21.5701 -1.00432 1.33872
upperback 3.75938 -1.53091 2.98729
thorax -7.88486 -1.05761 2.96002
lowerneck -14.8464 -0.866139 -1.9785
upperneck 3.49292 -0.434799 -2.19743
head 3.81061 -0.284701 -0.411977
rclavicle 7.95139e-016 7.15625e-015
rhumerus -52.5496 -2.67539 -84.0955
rradius 79.3765
rwrist -9.27155
rhand -30.2503 2.72306
rfingers 7.12502
rthumb -3.55921 -27.227
lclavicle 7.95139e-016 7.15625e-015
lhumerus -34.2203 -12.1916 99.6072
lradius 83.8332
lwrist 9.68331
lhand -30.4056 -19.0802
lfingers 7.12502
lthumb -3.70918 10.8672
rfemur -60.9006 -6.7647 27.2941
rtibia 73.5443
rfoot -19.7938 -10.4034
rtoes -26.1282
lfemur -27.0818 1.03495 -18.5477
ltibia 84.2045
lfoot -3.16217 -5.97815
ltoes -4.0172
93
root -1.37175 19.5873 18.9936 -166.322 -2.8389 -179.251
lowerback 21.6902 -0.857548 2.09381
upperback 3.69695 -1.15496 3.21202
thorax -8.0373 -0.900076 2.67766
lowerneck -14.8929 -0.981796 -2.01121
upperneck 3.60047 -0.597514 -2.03053
head 3.85855 -0.361486 -0.36398
rclavicle 2.06736e-014 -3.26007e-014
rhumerus -50.7612 -2.52487 -84.5961
rradius 78.6785
rwrist -9.02409
rhand -30.616 2.41459
rfingers 7.12502
rthumb -3.91229 -27.5292
lclavicle 2.06736e-014 -3.26007e-014
lhumerus -35.2649 -11.4758 99.2467
lradius 82.3344
lwrist 9.21449
lhand -30.6539 -19.0171
lfingers 7.12502
lthumb -3.94895 10.926
rfemur -58.4945 -6.52345 28.3629
rtibia 73.1276
rfoot -21.2353 -11.3594
rtoes -26.8506
lfemur -29.8817 1.80286 -17.1716
ltibia 88.0544
lfoot -4.49489 -5.63459
ltoes -3.7479
94
root -1.33387 19.6442 18.5894 -166.442 -2.93585 -178.466
lowerback 21.6812 -0.720158 2.67765
upperback 3.59889 -0.823691 3.3792
thorax -8.15213 -0.756012 2.43749
lowerneck -14.9533 -1.08285 -2.02746
upperneck 3.66542 -0.741382 -1.8766
head 3.8943 -0.427675 -0.321624
rclavicle 2.78299e-015 -2.8625e-014
rhumerus -49.0903 -2.1012 -85.1678
rradius 78.276
rwrist -8.88254
rhand -30.8739 2.02505
rfingers 7.12502
rthumb -4.16135 -27.914
lclavicle 2.78299e-015 -2.8625e-014
lhumerus -36.5783 -10.9859 98.8645
lradius 81.3895
lwrist 8.92784
lhand -30.7525 -18.9194
lfingers 7.12502
lthumb -4.04411 11.022
rfemur -56.1911 -6.40095 29.2737
rtibia 72.6185
rfoot -22.7091 -12.1677
rtoes -27.4489
lfemur -32.8782 2.4826 -16.0646
ltibia 91.5454
lfoot -5.77633 -5.26571
ltoes -3.51428
95
root -1.29745 19.6995 18.1844 -166.459 -3.0307 -177.882
lowerback 21.5591 -0.589994 3.07777
upperback 3.47429 -0.539864 3.49197
thorax -8.23071 -0.625863 2.25238
lowerneck -15.0221 -1.17079 -2.03225
upperneck 3.68903 -0.866964 -1.741
head 3.91703 -0.48395 -0.285827
rclavicle 7.55382e-015 4.53229e-014
rhumerus -47.5848 -1.43389 -85.7849
rradius 78.2214
rwrist -8.77121
rhand -31.0174 1.60388
rfingers 7.12502
rthumb -4.29997 -28.3325
lclavicle 7.55382e-015 4.53229e-014
lhumerus -38.1427 -10.7444 98.4949
lradius 80.9846
lwrist 8.8462
lhand -30.7156 -18.8224
lfingers 7.12502
lthumb -4.00855 11.1196
rfemur -53.9529 -6.40478 29.9927
rtibia 71.9984
rfoot -24.2438 -12.8714
rtoes -27.9051
lfemur -36.0313 3.05689 -15.2611
ltibia 94.6277
lfoot -6.98108 -4.88635
ltoes -3.42276
96
root -1.26284 19.7555 17.7774 -166.409 -3.11908 -177.47
lowerback 21.3507 -0.459294 3.3182
upperback 3.33296 -0.290006 3.56076
thorax -8.27881 -0.504291 2.11771
lowerneck -15.0931 -1.25476 -2.04046
upperneck 3.68267 -0.984735 -1.61441
head 3.92963 -0.5357 -0.251651
rclavicle -4.77083e-015 5.725e-014
rhumerus -46.2974 -0.572653 -86.4187
rradius 78.5545
rwrist -8.61472
rhand -31.0248 1.2207
rfingers 7.12502
rthumb -4.30711 -28.7155
lclavicle -4.77083e-015 5.725e-014
lhumerus -39.9203 -10.7613 98.1722
lradius 81.0682
lwrist 8.96672
lhand -30.5645 -18.7515
lfingers 7.12502
lthumb -3.86257 11.1932
rfemur -51.7309 -6.52472 30.5331
rtibia 71.2406
rfoot -25.745 -13.4939
rtoes -28.2549
lfemur -39.2699 3.52566 -14.7432
ltibia 97.2553
lfoot -8.09817 -4.51914
ltoes -3.66791
97
root -1.23042 19.8133 17.3679 -166.325 -3.20335 -177.181
lowerback 21.0878 -0.322062 3.44693
upperback 3.1767 -0.0553332 3.60251
thorax -8.31289 -0.384446 2.02087
lowerneck -15.15 -1.34281 -2.05822
upperneck 3.65478 -1.10492 -1.49902
head 3.93191 -0.588534 -0.219519
rclavicle -9.14409e-015 -2.54444e-014
rhumerus -45.277 0.422765 -87.0403
rradius 79.2831
rwrist -8.35007
rhand -30.9101 0.978531
rfingers 7.12502
rthumb -4.19636 -28.9599
lclavicle -9.14409e-015 -2.54444e-014
lhumerus -41.8736 -11.0319 97.935
lradius 81.5677
lwrist 9.26584
lhand -30.3222 -18.7217
lfingers 7.12502
lthumb -3.62861 11.2272
rfemur -49.4824 -6.74746 30.9346
rtibia 70.3314
rfoot -27.1652 -14.0278
rtoes -28.5461
lfemur -42.5328 3.89452 -14.4566
ltibia 99.4013
lfoot -9.11703 -4.19551
ltoes -4.23258
98
root -1.20019 19.874 16.9552 -166.231 -3.28339 -176.953
lowerback 20.783 -0.169768 3.52092
upperback 3.01464 0.186169 3.63449
thorax -8.32999 -0.258727 1.94283
lowerneck -15.1861 -1.23102 -2.16034
upperneck 3.61684 -1.29883 -1.36987
head 3.9259 -0.824441 -0.183352
rclavicle 0 5.24792e-014
rhumerus -44.535 1.50414 -87.6315
rradius 80.3933
rwrist -7.95689
rhand -30.6919 0.921343
rfingers 7.12502
rthumb -3.9856 -29.0211
lclavicle 0 5.24792e-014
lhumerus -43.9379 -11.5422 97.8046
lradius 82.3954
lwrist 9.68524
lhand -30.0183 -18.7124
lfingers 7.12502
lthumb -3.33513 11.2413
rfemur -47.1762 -7.04453 31.2503
rtibia 69.2622
rfoot -28.4869 -14.4295
rtoes -28.7766
lfemur -45.757 4.17649 -14.3244
ltibia 101.047
lfoot -10.0568 -3.95036
ltoes -5.09328
99
root -1.17202 19.9384 16.5394 -166.127 -3.36513 -176.74
lowerback 20.4309 0.0040199 3.58957
upperback 2.8511 0.452289 3.66771
thorax -8.32227 -0.120727 1.86305
lowerneck -15.2023 -1.36459 -2.23477
upperneck 3.55919 -1.47423 -1.24105
head 3.91083 -0.905412 -0.140644
rclavicle -2.10712e-014 -3.65764e-014
rhumerus -44.0521 2.63084 -88.1775
rradius 81.8354
rwrist -7.44959
rhand -30.4135 1.08257
rfingers 7.12502
rthumb -3.71681 -28.8648
lclavicle -2.10712e-014 -3.65764e-014
lhumerus -46.0525 -12.2683 97.7914
lradius 83.4572
lwrist 10.1495
lhand -29.6781 -18.7273
lfingers 7.12502
lthumb -3.00657 11.2313
rfemur -44.8157 -7.38752 31.5255
rtibia 68.026
rfoot -29.6457 -14.7099
rtoes -29.0587
lfemur -48.9112 4.37331 -14.278
ltibia 102.183
lfoot -10.9103 -3.81293
ltoes -6.01035
